<mxfile host="app.diagrams.net" modified="2020-10-27T00:50:15.254Z" agent="5.0 (Windows NT 6.1) AppleWebKit/537.36 (KHTML, like Gecko) Chrome/86.0.4240.111 Safari/537.36" etag="BLO1wPOYbNtVA5v0sFnJ" version="13.6.5" type="github">
  <diagram id="6a731a19-8d31-9384-78a2-239565b7b9f0" name="Page-1">
    <mxGraphModel dx="2355" dy="1535" grid="1" gridSize="7" guides="1" tooltips="1" connect="1" arrows="1" fold="1" page="1" pageScale="1" pageWidth="1169" pageHeight="827" background="#ffffff" math="0" shadow="0">
      <root>
        <mxCell id="0" />
        <mxCell id="1" parent="0" />
        <mxCell id="1350" value="&lt;b&gt;&lt;font style=&quot;font-size: 24px&quot;&gt;Contexto&lt;/font&gt;&lt;/b&gt;" style="ellipse;whiteSpace=wrap;html=1;shadow=0;fontFamily=Helvetica;fontSize=20;fontColor=#FFFFFF;align=center;strokeWidth=3;fillColor=#1699D3;strokeColor=none;" parent="1" vertex="1">
          <mxGeometry x="672" y="287" width="192.15" height="183.5" as="geometry" />
        </mxCell>
        <mxCell id="1351" value="&lt;font style=&quot;font-size: 24px&quot;&gt;&lt;b&gt;Causa&lt;/b&gt;&lt;/font&gt;" style="ellipse;whiteSpace=wrap;html=1;shadow=0;fontFamily=Helvetica;fontSize=20;fontColor=#FFFFFF;align=center;strokeWidth=3;fillColor=#F08705;strokeColor=none;gradientColor=none;" parent="1" vertex="1">
          <mxGeometry x="1484" y="253" width="193.28" height="186.5" as="geometry" />
        </mxCell>
        <mxCell id="1353" value="&lt;font style=&quot;font-size: 24px&quot;&gt;&lt;b&gt;Impacto &lt;br&gt;ambienta&lt;/b&gt;l&lt;/font&gt;" style="ellipse;whiteSpace=wrap;html=1;shadow=0;fontFamily=Helvetica;fontSize=20;fontColor=#FFFFFF;align=center;strokeWidth=3;strokeColor=none;fillColor=#63C234;" parent="1" vertex="1">
          <mxGeometry x="1582" y="695.81" width="185" height="180.38" as="geometry" />
        </mxCell>
        <mxCell id="1355" value="&lt;font style=&quot;font-size: 24px&quot;&gt;&lt;b&gt;Impacto &lt;br&gt;social&lt;/b&gt;&lt;/font&gt;" style="ellipse;whiteSpace=wrap;html=1;shadow=0;fontFamily=Helvetica;fontSize=20;fontColor=#FFFFFF;align=center;strokeWidth=3;strokeColor=none;fillColor=#56A8AB;" parent="1" vertex="1">
          <mxGeometry x="1316" y="1120" width="187.35" height="181.5" as="geometry" />
        </mxCell>
        <mxCell id="1356" value="&lt;font style=&quot;font-size: 24px&quot;&gt;&lt;b&gt;Acciones preventivas&lt;/b&gt;&lt;/font&gt;" style="ellipse;whiteSpace=wrap;html=1;shadow=0;fontFamily=Helvetica;fontSize=20;fontColor=#FFFFFF;align=center;strokeWidth=3;fillColor=#E85642;strokeColor=none;" parent="1" vertex="1">
          <mxGeometry x="833" y="1099" width="186.87" height="180" as="geometry" />
        </mxCell>
        <mxCell id="1359" style="endArrow=none;strokeWidth=6;strokeColor=#1699D3;html=1;" parent="1" source="1515" target="1350" edge="1">
          <mxGeometry relative="1" as="geometry" />
        </mxCell>
        <mxCell id="1360" style="endArrow=none;strokeWidth=6;strokeColor=#f08705;html=1;" parent="1" source="1515" target="1351" edge="1">
          <mxGeometry relative="1" as="geometry" />
        </mxCell>
        <mxCell id="1362" style="endArrow=none;strokeWidth=6;html=1;strokeColor=#63C234;" parent="1" source="1515" target="1353" edge="1">
          <mxGeometry relative="1" as="geometry" />
        </mxCell>
        <mxCell id="1363" style="endArrow=none;strokeWidth=6;strokeColor=#736CA8;html=1;" parent="1" source="1515" target="1516" edge="1">
          <mxGeometry relative="1" as="geometry" />
        </mxCell>
        <mxCell id="1365" value="" style="edgeStyle=none;endArrow=none;strokeWidth=6;html=1;strokeColor=#7F27F2;" parent="1" source="1515" target="1355" edge="1">
          <mxGeometry x="181" y="226.5" width="100" height="100" as="geometry">
            <mxPoint x="181" y="326.5" as="sourcePoint" />
            <mxPoint x="281" y="226.5" as="targetPoint" />
          </mxGeometry>
        </mxCell>
        <mxCell id="1366" value="" style="edgeStyle=none;endArrow=none;strokeWidth=6;strokeColor=#E85642;html=1;" parent="1" source="1515" target="1356" edge="1">
          <mxGeometry x="181" y="226.5" width="100" height="100" as="geometry">
            <mxPoint x="181" y="326.5" as="sourcePoint" />
            <mxPoint x="281" y="226.5" as="targetPoint" />
          </mxGeometry>
        </mxCell>
        <mxCell id="1368" value="&lt;span style=&quot;line-height: 107%&quot;&gt;&lt;font face=&quot;Arial, sans-serif&quot; style=&quot;font-size: 22px&quot;&gt;&lt;b&gt;Ubicación del &lt;/b&gt;&lt;b&gt;río&lt;/b&gt;&lt;b&gt;&amp;nbsp;Yauli&lt;/b&gt;&lt;/font&gt;&lt;/span&gt;" style="rounded=1;fillColor=#64BBE2;strokeColor=none;strokeWidth=3;shadow=0;html=1;fontColor=#FFFFFF;" parent="1" vertex="1">
          <mxGeometry x="121.5" y="311.25" width="280" height="70" as="geometry" />
        </mxCell>
        <mxCell id="1370" value="&lt;span style=&quot;line-height: 107%&quot;&gt;&lt;font style=&quot;font-size: 22px&quot;&gt;&lt;font face=&quot;Arial, sans-serif&quot;&gt;&lt;b&gt;Naciente y la desembocadura&lt;br&gt;&lt;/b&gt;&lt;/font&gt;&lt;br&gt;&lt;font face=&quot;Arial, sans-serif&quot;&gt;&lt;b&gt;del &lt;/b&gt;&lt;b&gt;río&lt;/b&gt;&lt;b&gt;&amp;nbsp;Yauli&lt;/b&gt;&lt;/font&gt;&lt;/font&gt;&lt;/span&gt;" style="rounded=1;fillColor=#64BBE2;strokeColor=none;strokeWidth=3;shadow=0;html=1;fontColor=#FFFFFF;" parent="1" vertex="1">
          <mxGeometry x="158" y="143.5" width="362.5" height="70" as="geometry" />
        </mxCell>
        <mxCell id="1375" value="&lt;b&gt;&lt;span style=&quot;line-height: 107% ; font-family: &amp;#34;arial&amp;#34; , sans-serif&quot;&gt;&lt;font style=&quot;font-size: 22px&quot;&gt;Campamento minero San Cristóbal&lt;br&gt;&amp;nbsp;&amp;nbsp;&lt;br&gt;ubicado en Yauli&lt;/font&gt;&lt;/span&gt;&lt;/b&gt;" style="rounded=1;fillColor=#64BBE2;strokeColor=none;strokeWidth=3;shadow=0;html=1;fontColor=#FFFFFF;" parent="1" vertex="1">
          <mxGeometry x="477.64" y="21" width="403" height="70" as="geometry" />
        </mxCell>
        <mxCell id="1376" value="&lt;b&gt;&lt;span style=&quot;line-height: 107% ; font-family: &amp;#34;arial&amp;#34; , sans-serif&quot;&gt;&lt;font style=&quot;font-size: 22px&quot;&gt;Empresas mineras operan &lt;br&gt;&lt;br&gt;cerca al río Yauli&lt;/font&gt;&lt;/span&gt;&lt;/b&gt;" style="rounded=1;fillColor=#64BBE2;strokeColor=none;strokeWidth=3;shadow=0;html=1;fontColor=#FFFFFF;" parent="1" vertex="1">
          <mxGeometry x="773.28" y="147" width="346.72" height="63" as="geometry" />
        </mxCell>
        <mxCell id="1377" value="" style="edgeStyle=none;endArrow=none;strokeWidth=3;strokeColor=#64BBE2;html=1;" parent="1" source="1350" target="1376" edge="1">
          <mxGeometry x="-221.5" y="56.5" width="100" height="100" as="geometry">
            <mxPoint x="-221.5" y="156.5" as="sourcePoint" />
            <mxPoint x="-121.5" y="56.5" as="targetPoint" />
          </mxGeometry>
        </mxCell>
        <mxCell id="1380" value="" style="edgeStyle=none;endArrow=none;strokeWidth=3;strokeColor=#64BBE2;html=1;" parent="1" source="1350" target="1368" edge="1">
          <mxGeometry x="-221.5" y="56.5" width="100" height="100" as="geometry">
            <mxPoint x="-221.5" y="156.5" as="sourcePoint" />
            <mxPoint x="-121.5" y="56.5" as="targetPoint" />
          </mxGeometry>
        </mxCell>
        <mxCell id="1382" value="" style="edgeStyle=none;endArrow=none;strokeWidth=3;strokeColor=#64BBE2;html=1;" parent="1" source="1350" target="1370" edge="1">
          <mxGeometry x="-221.5" y="56.5" width="100" height="100" as="geometry">
            <mxPoint x="-221.5" y="156.5" as="sourcePoint" />
            <mxPoint x="-121.5" y="56.5" as="targetPoint" />
          </mxGeometry>
        </mxCell>
        <mxCell id="1387" value="" style="edgeStyle=none;endArrow=none;strokeWidth=3;strokeColor=#64BBE2;html=1;" parent="1" source="1350" target="1375" edge="1">
          <mxGeometry x="-221.5" y="56.5" width="100" height="100" as="geometry">
            <mxPoint x="-221.5" y="156.5" as="sourcePoint" />
            <mxPoint x="-121.5" y="56.5" as="targetPoint" />
          </mxGeometry>
        </mxCell>
        <mxCell id="1389" value="&lt;span style=&quot;line-height: 107%&quot;&gt;&lt;font style=&quot;font-size: 22px&quot;&gt;&lt;font face=&quot;arial, sans-serif&quot;&gt;&lt;b&gt;Nivel de contaminación&lt;br&gt;&amp;nbsp;&amp;nbsp;&lt;/b&gt;&lt;/font&gt;&lt;br&gt;&lt;font face=&quot;arial, sans-serif&quot;&gt;&lt;b&gt;ha alcanzado el &lt;/b&gt;&lt;b&gt;río&lt;/b&gt;&lt;b&gt;&amp;nbsp;Yauli&lt;/b&gt;&lt;/font&gt;&lt;/font&gt;&lt;/span&gt;" style="rounded=1;fillColor=#f5af58;strokeColor=none;strokeWidth=3;shadow=0;html=1;fontColor=#FFFFFF;" parent="1" vertex="1">
          <mxGeometry x="1211" y="140" width="329" height="63" as="geometry" />
        </mxCell>
        <mxCell id="1396" value="&lt;b&gt;&lt;span style=&quot;line-height: 107% ; font-family: &amp;#34;arial&amp;#34; , sans-serif&quot;&gt;&lt;font style=&quot;font-size: 22px&quot;&gt;Metales son los principales&lt;br&gt;&amp;nbsp;&amp;nbsp;&lt;br&gt;contaminantes del río Yauli&lt;/font&gt;&lt;/span&gt;&lt;/b&gt;" style="rounded=1;fillColor=#f5af58;strokeColor=none;strokeWidth=3;shadow=0;html=1;fontColor=#FFFFFF;" parent="1" vertex="1">
          <mxGeometry x="1883" y="147" width="364" height="63" as="geometry" />
        </mxCell>
        <mxCell id="1397" value="&lt;b&gt;&lt;span style=&quot;line-height: 15.6933px ; font-family: &amp;#34;arial&amp;#34; , sans-serif&quot;&gt;&lt;font style=&quot;font-size: 22px&quot;&gt;Principales fuentes de&amp;nbsp;&lt;br&gt;&lt;br&gt;contaminación del río Yauli&lt;/font&gt;&lt;/span&gt;&lt;/b&gt;" style="rounded=1;fillColor=#f5af58;strokeColor=none;strokeWidth=3;shadow=0;html=1;fontColor=#FFFFFF;" parent="1" vertex="1">
          <mxGeometry x="1820" y="322" width="385" height="70" as="geometry" />
        </mxCell>
        <mxCell id="1401" value="" style="edgeStyle=none;endArrow=none;strokeWidth=3;strokeColor=#F5AF58;html=1;" parent="1" source="1351" target="1389" edge="1">
          <mxGeometry x="346.5" y="41.5" width="100" height="100" as="geometry">
            <mxPoint x="346.5" y="141.5" as="sourcePoint" />
            <mxPoint x="446.5" y="41.5" as="targetPoint" />
          </mxGeometry>
        </mxCell>
        <mxCell id="1406" value="" style="edgeStyle=none;endArrow=none;strokeWidth=3;strokeColor=#F5AF58;html=1;entryX=0.5;entryY=1;entryDx=0;entryDy=0;" parent="1" source="1351" target="9u18a44x30a8piB-VxQz-1551" edge="1">
          <mxGeometry x="346.5" y="41.5" width="100" height="100" as="geometry">
            <mxPoint x="346.5" y="141.5" as="sourcePoint" />
            <mxPoint x="1660.9728598306679" y="133" as="targetPoint" />
          </mxGeometry>
        </mxCell>
        <mxCell id="1408" value="" style="edgeStyle=none;endArrow=none;strokeWidth=3;strokeColor=#F5AF58;html=1;" parent="1" source="1351" target="1396" edge="1">
          <mxGeometry x="346.5" y="41.5" width="100" height="100" as="geometry">
            <mxPoint x="346.5" y="141.5" as="sourcePoint" />
            <mxPoint x="446.5" y="41.5" as="targetPoint" />
          </mxGeometry>
        </mxCell>
        <mxCell id="1409" value="" style="edgeStyle=none;endArrow=none;strokeWidth=3;strokeColor=#F5AF58;html=1;" parent="1" source="1351" target="1397" edge="1">
          <mxGeometry x="346.5" y="41.5" width="100" height="100" as="geometry">
            <mxPoint x="346.5" y="141.5" as="sourcePoint" />
            <mxPoint x="446.5" y="41.5" as="targetPoint" />
          </mxGeometry>
        </mxCell>
        <mxCell id="1438" value="&lt;b&gt;&lt;span style=&quot;line-height: 107% ; font-family: &amp;#34;arial&amp;#34; , sans-serif&quot;&gt;&lt;font style=&quot;font-size: 22px&quot;&gt;Impacto climático de la minería en Yauli&amp;nbsp;&lt;/font&gt;&lt;/span&gt;&lt;/b&gt;" style="rounded=1;strokeColor=none;strokeWidth=3;shadow=0;html=1;fontColor=#FFFFFF;fontSize=22;fillColor=#63C234;" parent="1" vertex="1">
          <mxGeometry x="1754" y="497" width="487" height="70" as="geometry" />
        </mxCell>
        <mxCell id="1441" value="&lt;b&gt;&lt;span style=&quot;line-height: 107% ; font-family: &amp;#34;arial&amp;#34; , sans-serif&quot;&gt;&lt;font style=&quot;font-size: 22px&quot;&gt;El daño del drenaje ácido &lt;br&gt;&lt;br&gt;de mina al río Yauli&lt;/font&gt;&lt;/span&gt;&lt;/b&gt;" style="rounded=1;strokeColor=none;strokeWidth=3;shadow=0;html=1;fontColor=#FFFFFF;arcSize=13;fillColor=#63C234;" parent="1" vertex="1">
          <mxGeometry x="1925" y="631.31" width="385" height="64.5" as="geometry" />
        </mxCell>
        <mxCell id="1443" value="&lt;b&gt;&lt;span style=&quot;line-height: 107% ; font-family: &amp;#34;arial&amp;#34; , sans-serif&quot;&gt;&lt;font style=&quot;font-size: 22px&quot;&gt;Desperfecto en el desarrollo &lt;br&gt;&lt;br&gt;de la agricultura&amp;nbsp;&lt;/font&gt;&lt;/span&gt;&lt;/b&gt;" style="rounded=1;strokeColor=none;strokeWidth=3;shadow=0;html=1;fontColor=#FFFFFF;fillColor=#63C234;" parent="1" vertex="1">
          <mxGeometry x="1890" y="798" width="420" height="63" as="geometry" />
        </mxCell>
        <mxCell id="1449" value="" style="edgeStyle=none;endArrow=none;strokeWidth=3;html=1;strokeColor=#63C234;" parent="1" source="1353" target="1438" edge="1">
          <mxGeometry x="-161" y="141.5" width="100" height="100" as="geometry">
            <mxPoint x="-161" y="241.5" as="sourcePoint" />
            <mxPoint x="-61" y="141.5" as="targetPoint" />
          </mxGeometry>
        </mxCell>
        <mxCell id="1453" value="" style="edgeStyle=none;endArrow=none;strokeWidth=3;html=1;strokeColor=#63C234;" parent="1" source="1353" target="1441" edge="1">
          <mxGeometry x="-161" y="141.5" width="100" height="100" as="geometry">
            <mxPoint x="-161" y="241.5" as="sourcePoint" />
            <mxPoint x="-61" y="141.5" as="targetPoint" />
          </mxGeometry>
        </mxCell>
        <mxCell id="1454" value="" style="edgeStyle=none;endArrow=none;strokeWidth=3;html=1;strokeColor=#63C234;" parent="1" source="1353" target="1443" edge="1">
          <mxGeometry x="-161" y="141.5" width="100" height="100" as="geometry">
            <mxPoint x="-161" y="241.5" as="sourcePoint" />
            <mxPoint x="-61" y="141.5" as="targetPoint" />
          </mxGeometry>
        </mxCell>
        <mxCell id="1470" value="&lt;b&gt;&lt;span style=&quot;line-height: 107% ; font-family: &amp;#34;arial&amp;#34; , sans-serif&quot;&gt;&lt;font style=&quot;font-size: 22px&quot;&gt;Grandes perjuicios a la&lt;br&gt;&lt;br&gt;población de Yauli&lt;/font&gt;&lt;/span&gt;&lt;/b&gt;" style="rounded=1;strokeColor=none;strokeWidth=3;shadow=0;html=1;fontColor=#FFFFFF;fillColor=#56A8AB;" parent="1" vertex="1">
          <mxGeometry x="1785" y="1190" width="406" height="71" as="geometry" />
        </mxCell>
        <mxCell id="1471" value="&lt;b&gt;&lt;span style=&quot;line-height: 107% ; font-family: &amp;#34;arial&amp;#34; , sans-serif&quot;&gt;&lt;font style=&quot;font-size: 22px&quot;&gt;Intoxicaciones por el &lt;br&gt;&lt;br&gt;consumo partículas de Zinc&lt;/font&gt;&lt;/span&gt;&lt;/b&gt;" style="rounded=1;strokeColor=none;strokeWidth=3;shadow=0;html=1;fontColor=#FFFFFF;fillColor=#56A8AB;" parent="1" vertex="1">
          <mxGeometry x="1715" y="1358" width="434" height="77" as="geometry" />
        </mxCell>
        <mxCell id="1472" value="&lt;b&gt;&lt;span style=&quot;line-height: 107% ; font-family: &amp;#34;arial&amp;#34; , sans-serif&quot;&gt;&lt;font style=&quot;font-size: 22px&quot;&gt;Enfermedades causadas por el consumo&lt;br&gt;&amp;nbsp;&amp;nbsp;&lt;br&gt;de aguas contaminadas del río Yauli&lt;/font&gt;&lt;/span&gt;&lt;/b&gt;" style="rounded=1;strokeColor=none;strokeWidth=3;shadow=0;html=1;fontColor=#FFFFFF;fillColor=#56A8AB;" parent="1" vertex="1">
          <mxGeometry x="1351" y="1491" width="448" height="77" as="geometry" />
        </mxCell>
        <mxCell id="1482" value="" style="edgeStyle=none;endArrow=none;strokeWidth=3;html=1;strokeColor=#56A8AB;" parent="1" source="1355" target="1470" edge="1">
          <mxGeometry x="504" y="16.5" width="100" height="100" as="geometry">
            <mxPoint x="504" y="116.5" as="sourcePoint" />
            <mxPoint x="604" y="16.5" as="targetPoint" />
          </mxGeometry>
        </mxCell>
        <mxCell id="1483" value="" style="edgeStyle=none;endArrow=none;strokeWidth=3;html=1;strokeColor=#56A8AB;" parent="1" source="1355" target="1471" edge="1">
          <mxGeometry x="504" y="16.5" width="100" height="100" as="geometry">
            <mxPoint x="504" y="116.5" as="sourcePoint" />
            <mxPoint x="604" y="16.5" as="targetPoint" />
          </mxGeometry>
        </mxCell>
        <mxCell id="1484" value="" style="edgeStyle=none;endArrow=none;strokeWidth=3;html=1;strokeColor=#56A8AB;" parent="1" source="1355" target="1472" edge="1">
          <mxGeometry x="504" y="16.5" width="100" height="100" as="geometry">
            <mxPoint x="504" y="116.5" as="sourcePoint" />
            <mxPoint x="604" y="16.5" as="targetPoint" />
          </mxGeometry>
        </mxCell>
        <mxCell id="1496" value="&lt;b&gt;&lt;span style=&quot;line-height: 107% ; font-family: &amp;#34;arial&amp;#34; , sans-serif&quot;&gt;&lt;font style=&quot;font-size: 22px&quot;&gt;La Autoridad Nacional del Agua vigila&lt;br&gt;&amp;nbsp;&amp;nbsp;&lt;br&gt;y controla la calidad de las aguas del río Yauli&lt;/font&gt;&lt;/span&gt;&lt;/b&gt;" style="rounded=1;fillColor=#f08e81;strokeColor=none;strokeWidth=3;shadow=0;html=1;fontColor=#FFFFFF;" parent="1" vertex="1">
          <mxGeometry x="91" y="1351" width="533" height="77" as="geometry" />
        </mxCell>
        <mxCell id="1498" value="&lt;b&gt;&lt;span style=&quot;line-height: 107% ; font-family: &amp;#34;arial&amp;#34; , sans-serif&quot;&gt;&lt;font style=&quot;font-size: 22px&quot;&gt;El Ministerio del Ambiente supervisa que &lt;br&gt;&lt;br&gt;se cumplan los regímenes de control ambiental&lt;/font&gt;&lt;/span&gt;&lt;/b&gt;" style="rounded=1;fillColor=#f08e81;strokeColor=none;strokeWidth=3;shadow=0;html=1;fontColor=#FFFFFF;" parent="1" vertex="1">
          <mxGeometry x="269.28" y="1533" width="504" height="77" as="geometry" />
        </mxCell>
        <mxCell id="1500" value="&lt;b&gt;&lt;span style=&quot;line-height: 107% ; font-family: &amp;#34;arial&amp;#34; , sans-serif&quot;&gt;&lt;font style=&quot;font-size: 22px&quot;&gt;&lt;br&gt;Entidades encargadas supervisan que se cumplan&lt;br&gt;&amp;nbsp;&amp;nbsp;&lt;br&gt;los procedimientos para el desecho de residuos&lt;br&gt;&lt;/font&gt;&lt;br&gt;&lt;/span&gt;&lt;/b&gt;" style="rounded=1;fillColor=#f08e81;strokeColor=none;strokeWidth=3;shadow=0;html=1;fontColor=#FFFFFF;" parent="1" vertex="1">
          <mxGeometry x="735" y="1393" width="539" height="77" as="geometry" />
        </mxCell>
        <mxCell id="1509" value="" style="edgeStyle=none;endArrow=none;strokeWidth=3;strokeColor=#F08E81;html=1;" parent="1" source="1356" target="1496" edge="1">
          <mxGeometry x="236" y="144" width="100" height="100" as="geometry">
            <mxPoint x="236" y="244" as="sourcePoint" />
            <mxPoint x="336" y="144" as="targetPoint" />
          </mxGeometry>
        </mxCell>
        <mxCell id="1511" value="" style="edgeStyle=none;endArrow=none;strokeWidth=3;strokeColor=#F08E81;html=1;" parent="1" source="1356" target="1498" edge="1">
          <mxGeometry x="236" y="144" width="100" height="100" as="geometry">
            <mxPoint x="236" y="244" as="sourcePoint" />
            <mxPoint x="336" y="144" as="targetPoint" />
          </mxGeometry>
        </mxCell>
        <mxCell id="1513" value="" style="edgeStyle=none;endArrow=none;strokeWidth=3;strokeColor=#F08E81;html=1;" parent="1" source="1356" target="1500" edge="1">
          <mxGeometry x="236" y="144" width="100" height="100" as="geometry">
            <mxPoint x="236" y="244" as="sourcePoint" />
            <mxPoint x="336" y="144" as="targetPoint" />
          </mxGeometry>
        </mxCell>
        <mxCell id="1515" value="&lt;span style=&quot;line-height: 115% ; font-family: &amp;#34;calibri&amp;#34; , sans-serif&quot;&gt;&lt;font style=&quot;font-size: 36px&quot; color=&quot;#000000&quot;&gt;El impacto ambiental&lt;br&gt;&amp;nbsp;de la minería en la contaminación del río&lt;br&gt;Yauli en los años&lt;br&gt;2010-2015&lt;/font&gt;&lt;/span&gt;" style="ellipse;whiteSpace=wrap;html=1;shadow=0;fontFamily=Helvetica;fontSize=30;align=center;strokeWidth=6;fillColor=#f8cecc;fontStyle=1;strokeColor=#b85450;" parent="1" vertex="1">
          <mxGeometry x="966" y="592" width="410" height="388" as="geometry" />
        </mxCell>
        <mxCell id="1516" value="&lt;b&gt;&lt;font style=&quot;font-size: 24px&quot;&gt;Acciones para contrarrestar&lt;/font&gt;&lt;/b&gt;" style="ellipse;whiteSpace=wrap;html=1;shadow=0;fontFamily=Helvetica;fontSize=20;fontColor=#FFFFFF;align=center;strokeWidth=3;fillColor=#736ca8;strokeColor=none;" parent="1" vertex="1">
          <mxGeometry x="585" y="694.25" width="188.28" height="183.5" as="geometry" />
        </mxCell>
        <mxCell id="1518" value="&lt;b&gt;&lt;span style=&quot;line-height: 107% ; font-family: &amp;#34;arial&amp;#34; , sans-serif&quot;&gt;&lt;font style=&quot;font-size: 22px&quot;&gt;Acuerdos del Estado peruano con empresas &lt;br&gt;&lt;br&gt;mineras para el tratamiento de aguas del río Yauli&lt;/font&gt;&lt;/span&gt;&lt;/b&gt;" style="rounded=1;fillColor=#a29dc5;strokeColor=none;strokeWidth=3;shadow=0;html=1;fontColor=#FFFFFF;" parent="1" vertex="1">
          <mxGeometry x="49" y="515" width="539" height="77" as="geometry" />
        </mxCell>
        <mxCell id="1520" value="&lt;b&gt;&lt;span style=&quot;line-height: 115% ; font-family: &amp;#34;arial&amp;#34; , sans-serif&quot;&gt;&lt;font style=&quot;font-size: 22px&quot;&gt;Empresas mineras implementan proyectos&lt;br&gt;&amp;nbsp;&amp;nbsp;&lt;br&gt;para combatir la contaminación del río Yauli&lt;/font&gt;&lt;/span&gt;&lt;/b&gt;" style="rounded=1;fillColor=#a29dc5;strokeColor=none;strokeWidth=3;shadow=0;html=1;fontColor=#FFFFFF;" parent="1" vertex="1">
          <mxGeometry x="21" y="679" width="471.5" height="77" as="geometry" />
        </mxCell>
        <mxCell id="1522" value="&lt;b&gt;&lt;span style=&quot;line-height: 115% ; font-family: &amp;#34;arial&amp;#34; , sans-serif&quot;&gt;&lt;font style=&quot;font-size: 22px&quot;&gt;Procesos para la descontaminación&lt;br&gt;&lt;br&gt;las aguas del río Yauli&lt;/font&gt;&lt;/span&gt;&lt;/b&gt;" style="rounded=1;fillColor=#a29dc5;strokeColor=none;strokeWidth=3;shadow=0;html=1;fontColor=#FFFFFF;" parent="1" vertex="1">
          <mxGeometry x="28" y="819" width="399" height="70" as="geometry" />
        </mxCell>
        <mxCell id="1529" value="&lt;b&gt;&lt;span style=&quot;line-height: 107% ; font-family: &amp;#34;arial&amp;#34; , sans-serif&quot;&gt;&lt;font style=&quot;font-size: 22px&quot;&gt;La Autoridad Nacional del Agua &lt;br&gt;&lt;br&gt;estableció una red de monitoreo&lt;/font&gt;&lt;/span&gt;&lt;/b&gt;" style="rounded=1;fillColor=#a29dc5;strokeColor=none;strokeWidth=3;shadow=0;html=1;fontColor=#FFFFFF;" parent="1" vertex="1">
          <mxGeometry x="147" y="966" width="441" height="70" as="geometry" />
        </mxCell>
        <mxCell id="1530" value="" style="edgeStyle=none;endArrow=none;strokeWidth=3;strokeColor=#A29DC5;html=1;" parent="1" source="1516" target="1518" edge="1">
          <mxGeometry x="-1479" y="-263.5" width="100" height="100" as="geometry">
            <mxPoint x="-1479" y="-163.5" as="sourcePoint" />
            <mxPoint x="-1379" y="-263.5" as="targetPoint" />
          </mxGeometry>
        </mxCell>
        <mxCell id="1532" value="" style="edgeStyle=none;endArrow=none;strokeWidth=3;strokeColor=#A29DC5;html=1;" parent="1" source="1516" target="1520" edge="1">
          <mxGeometry x="-1479" y="-263.5" width="100" height="100" as="geometry">
            <mxPoint x="-1479" y="-163.5" as="sourcePoint" />
            <mxPoint x="-1379" y="-263.5" as="targetPoint" />
          </mxGeometry>
        </mxCell>
        <mxCell id="1534" value="" style="edgeStyle=none;endArrow=none;strokeWidth=3;strokeColor=#A29DC5;html=1;" parent="1" source="1516" target="1522" edge="1">
          <mxGeometry x="-1479" y="-263.5" width="100" height="100" as="geometry">
            <mxPoint x="-1479" y="-163.5" as="sourcePoint" />
            <mxPoint x="-1379" y="-263.5" as="targetPoint" />
          </mxGeometry>
        </mxCell>
        <mxCell id="1540" value="" style="edgeStyle=none;endArrow=none;strokeWidth=3;strokeColor=#A29DC5;html=1;" parent="1" source="1516" target="1529" edge="1">
          <mxGeometry x="-1479" y="-263.5" width="100" height="100" as="geometry">
            <mxPoint x="-1479" y="-163.5" as="sourcePoint" />
            <mxPoint x="-1379" y="-263.5" as="targetPoint" />
          </mxGeometry>
        </mxCell>
        <mxCell id="1542" style="edgeStyle=none;rounded=0;html=1;exitX=0.5;exitY=1;endArrow=none;endFill=0;jettySize=auto;orthogonalLoop=1;strokeColor=#736CA8;strokeWidth=2;fillColor=#64bbe2;fontSize=20;fontColor=#23445D;" parent="1" source="1529" target="1529" edge="1">
          <mxGeometry relative="1" as="geometry" />
        </mxCell>
        <mxCell id="9u18a44x30a8piB-VxQz-1544" value="&lt;b&gt;&lt;span style=&quot;line-height: 107% ; font-family: &amp;#34;arial&amp;#34; , sans-serif&quot;&gt;&lt;font style=&quot;font-size: 22px&quot;&gt;Animales marinos afectados&lt;br&gt;&amp;nbsp;&amp;nbsp;&lt;br&gt;por la contaminación al río Yauli&lt;/font&gt;&lt;/span&gt;&lt;/b&gt;" style="rounded=1;strokeColor=none;strokeWidth=3;shadow=0;html=1;fontColor=#FFFFFF;fillColor=#63C234;" vertex="1" parent="1">
          <mxGeometry x="1883" y="959" width="378" height="70" as="geometry" />
        </mxCell>
        <mxCell id="9u18a44x30a8piB-VxQz-1545" value="" style="edgeStyle=none;endArrow=none;strokeWidth=3;html=1;exitX=0.5;exitY=1;exitDx=0;exitDy=0;strokeColor=#63C234;" edge="1" parent="1" source="1353" target="9u18a44x30a8piB-VxQz-1544">
          <mxGeometry x="-212.03" y="175.4" width="100" height="100" as="geometry">
            <mxPoint x="1861.995703717708" y="871.5002555122711" as="sourcePoint" />
            <mxPoint x="2104.0789837997054" y="988.4" as="targetPoint" />
          </mxGeometry>
        </mxCell>
        <mxCell id="9u18a44x30a8piB-VxQz-1546" value="&lt;span style=&quot;line-height: 115%&quot;&gt;&lt;font style=&quot;font-size: 22px&quot;&gt;&lt;font face=&quot;Arial, sans-serif&quot;&gt;&lt;b&gt;Recomendaciones&lt;/b&gt;&lt;b&gt;&amp;nbsp;de&amp;nbsp; DIGESA frente&amp;nbsp;&lt;/b&gt;&lt;/font&gt;&lt;font face=&quot;Arial, sans-serif&quot;&gt;&lt;b&gt;al &lt;br&gt;&lt;br&gt;problema de las aguas contaminadas del río Yauli&lt;/b&gt;&lt;/font&gt;&lt;/font&gt;&lt;/span&gt;" style="rounded=1;fillColor=#f08e81;strokeColor=none;strokeWidth=3;shadow=0;html=1;fontColor=#FFFFFF;" vertex="1" parent="1">
          <mxGeometry x="63" y="1172.25" width="532" height="77" as="geometry" />
        </mxCell>
        <mxCell id="9u18a44x30a8piB-VxQz-1547" value="" style="edgeStyle=none;endArrow=none;strokeWidth=3;strokeColor=#F08E81;html=1;exitX=0.038;exitY=0.308;exitDx=0;exitDy=0;exitPerimeter=0;entryX=1;entryY=0.5;entryDx=0;entryDy=0;" edge="1" parent="1" source="1356" target="9u18a44x30a8piB-VxQz-1546">
          <mxGeometry x="243" y="151" width="100" height="100" as="geometry">
            <mxPoint x="614.3478414793458" y="1338.4765264376497" as="sourcePoint" />
            <mxPoint x="547.2270742358073" y="1352" as="targetPoint" />
          </mxGeometry>
        </mxCell>
        <mxCell id="9u18a44x30a8piB-VxQz-1551" value="&lt;font face=&quot;arial, sans-serif&quot;&gt;&lt;span style=&quot;font-size: 22px&quot;&gt;&lt;b&gt;Empresas mineras desechan &lt;br&gt;sus residuos al río Yauli&lt;/b&gt;&lt;/span&gt;&lt;/font&gt;" style="rounded=1;fillColor=#f5af58;strokeColor=none;strokeWidth=3;shadow=0;html=1;fontColor=#FFFFFF;" vertex="1" parent="1">
          <mxGeometry x="1540" y="35" width="371" height="63" as="geometry" />
        </mxCell>
        <mxCell id="9u18a44x30a8piB-VxQz-1560" value="" style="edgeStyle=none;endArrow=none;strokeWidth=6;html=1;strokeColor=#56A8AB;" edge="1" parent="1">
          <mxGeometry x="181" y="226.5" width="100" height="100" as="geometry">
            <mxPoint x="1266.721433486458" y="957.5526989757304" as="sourcePoint" />
            <mxPoint x="1364.874133510762" y="1131.0516164559854" as="targetPoint" />
          </mxGeometry>
        </mxCell>
      </root>
    </mxGraphModel>
  </diagram>
</mxfile>
